<mxfile host="app.diagrams.net" modified="2024-05-21T16:10:58.055Z" agent="Mozilla/5.0 (Windows NT 10.0; Win64; x64) AppleWebKit/537.36 (KHTML, like Gecko) Chrome/125.0.0.0 Safari/537.36" etag="QRiBEEloa8zuRty439St" version="24.4.4" type="github">
  <diagram name="Seite-1" id="umUUJawYlVgc-_mky7lx">
    <mxGraphModel dx="1221" dy="618" grid="1" gridSize="10" guides="1" tooltips="1" connect="1" arrows="1" fold="1" page="1" pageScale="1" pageWidth="1169" pageHeight="1654" math="0" shadow="0">
      <root>
        <mxCell id="0" />
        <mxCell id="1" parent="0" />
        <mxCell id="sQe6duIV1zFRkCheIAob-3" value="Bezeichnung bearbeiten" style="rounded=1;whiteSpace=wrap;html=1;fontFamily=Helvetica;fontSize=11;fontColor=default;labelBackgroundColor=default;" vertex="1" parent="1">
          <mxGeometry x="451" y="466.39" width="77.75" height="40" as="geometry" />
        </mxCell>
        <mxCell id="sQe6duIV1zFRkCheIAob-4" value="fertig?" style="text;html=1;align=center;verticalAlign=middle;resizable=0;points=[];autosize=1;strokeColor=none;fillColor=none;fontFamily=Helvetica;fontSize=11;fontColor=default;labelBackgroundColor=default;" vertex="1" parent="1">
          <mxGeometry x="495" y="580" width="50" height="30" as="geometry" />
        </mxCell>
        <mxCell id="sQe6duIV1zFRkCheIAob-5" style="edgeStyle=orthogonalEdgeStyle;rounded=0;orthogonalLoop=1;jettySize=auto;html=1;entryX=0.5;entryY=0;entryDx=0;entryDy=0;strokeColor=default;align=center;verticalAlign=middle;fontFamily=Helvetica;fontSize=11;fontColor=default;labelBackgroundColor=default;endArrow=open;endFill=0;" edge="1" parent="1" source="sQe6duIV1zFRkCheIAob-6" target="sQe6duIV1zFRkCheIAob-17">
          <mxGeometry relative="1" as="geometry" />
        </mxCell>
        <mxCell id="sQe6duIV1zFRkCheIAob-6" value="Tag erstellen" style="rounded=1;whiteSpace=wrap;html=1;fontFamily=Helvetica;fontSize=11;fontColor=default;labelBackgroundColor=default;" vertex="1" parent="1">
          <mxGeometry x="257" y="254" width="98" height="40" as="geometry" />
        </mxCell>
        <mxCell id="sQe6duIV1zFRkCheIAob-7" value="" style="strokeWidth=1;html=1;shape=mxgraph.flowchart.annotation_2;align=left;labelPosition=right;pointerEvents=1;rotation=90;fontFamily=Helvetica;fontSize=11;fontColor=default;labelBackgroundColor=default;" vertex="1" parent="1">
          <mxGeometry x="338" y="279" width="9" height="11" as="geometry" />
        </mxCell>
        <mxCell id="sQe6duIV1zFRkCheIAob-8" value="" style="endArrow=none;html=1;rounded=0;entryX=0.519;entryY=0.49;entryDx=0;entryDy=0;entryPerimeter=0;exitX=1;exitY=0.5;exitDx=0;exitDy=0;exitPerimeter=0;strokeWidth=1;strokeColor=default;align=center;verticalAlign=middle;fontFamily=Helvetica;fontSize=11;fontColor=default;labelBackgroundColor=default;edgeStyle=orthogonalEdgeStyle;" edge="1" parent="1" source="sQe6duIV1zFRkCheIAob-7" target="sQe6duIV1zFRkCheIAob-7">
          <mxGeometry width="50" height="50" relative="1" as="geometry">
            <mxPoint x="-288" y="401.5" as="sourcePoint" />
            <mxPoint x="-225" y="431.5" as="targetPoint" />
          </mxGeometry>
        </mxCell>
        <mxCell id="sQe6duIV1zFRkCheIAob-9" value="Tags bearbeiten" style="shape=umlFrame;whiteSpace=wrap;html=1;pointerEvents=0;width=100;height=20;align=left;" vertex="1" parent="1">
          <mxGeometry x="230" y="20" width="530" height="860" as="geometry" />
        </mxCell>
        <mxCell id="sQe6duIV1zFRkCheIAob-10" style="edgeStyle=orthogonalEdgeStyle;rounded=0;orthogonalLoop=1;jettySize=auto;html=1;endArrow=open;endFill=0;entryX=0.5;entryY=0;entryDx=0;entryDy=0;" edge="1" parent="1" source="sQe6duIV1zFRkCheIAob-11" target="sQe6duIV1zFRkCheIAob-39">
          <mxGeometry relative="1" as="geometry">
            <mxPoint x="370" y="210" as="targetPoint" />
          </mxGeometry>
        </mxCell>
        <mxCell id="sQe6duIV1zFRkCheIAob-11" value="" style="ellipse;html=1;shape=startState;fillColor=#000000;strokeColor=#000000;" vertex="1" parent="1">
          <mxGeometry x="380" y="50" width="30" height="30" as="geometry" />
        </mxCell>
        <mxCell id="sQe6duIV1zFRkCheIAob-12" value="" style="ellipse;html=1;shape=endState;fillColor=#000000;strokeColor=#000000;fontFamily=Helvetica;fontSize=11;fontColor=default;labelBackgroundColor=default;" vertex="1" parent="1">
          <mxGeometry x="535" y="820" width="30" height="30" as="geometry" />
        </mxCell>
        <mxCell id="sQe6duIV1zFRkCheIAob-13" style="edgeStyle=orthogonalEdgeStyle;rounded=0;orthogonalLoop=1;jettySize=auto;html=1;exitX=0;exitY=0.5;exitDx=0;exitDy=0;entryX=0.5;entryY=0;entryDx=0;entryDy=0;strokeColor=default;align=center;verticalAlign=middle;fontFamily=Helvetica;fontSize=11;fontColor=default;labelBackgroundColor=default;endArrow=open;endFill=0;" edge="1" parent="1" source="sQe6duIV1zFRkCheIAob-43" target="sQe6duIV1zFRkCheIAob-6">
          <mxGeometry relative="1" as="geometry">
            <mxPoint x="319.25" y="205" as="sourcePoint" />
          </mxGeometry>
        </mxCell>
        <mxCell id="sQe6duIV1zFRkCheIAob-14" style="edgeStyle=orthogonalEdgeStyle;rounded=0;orthogonalLoop=1;jettySize=auto;html=1;exitX=1;exitY=0.5;exitDx=0;exitDy=0;entryX=0.5;entryY=0;entryDx=0;entryDy=0;endArrow=open;endFill=0;" edge="1" parent="1" source="sQe6duIV1zFRkCheIAob-43" target="sQe6duIV1zFRkCheIAob-16">
          <mxGeometry relative="1" as="geometry">
            <Array as="points" />
            <mxPoint x="475.75" y="205" as="sourcePoint" />
          </mxGeometry>
        </mxCell>
        <mxCell id="sQe6duIV1zFRkCheIAob-16" value="Tag auswählen" style="rounded=1;whiteSpace=wrap;html=1;fontFamily=Helvetica;fontSize=11;fontColor=default;labelBackgroundColor=default;" vertex="1" parent="1">
          <mxGeometry x="426" y="254" width="100" height="40" as="geometry" />
        </mxCell>
        <mxCell id="sQe6duIV1zFRkCheIAob-17" value="" style="shape=sumEllipse;perimeter=ellipsePerimeter;html=1;backgroundOutline=1;fontFamily=Helvetica;fontSize=11;fontColor=default;labelBackgroundColor=default;" vertex="1" parent="1">
          <mxGeometry x="291" y="320" width="30" height="30" as="geometry" />
        </mxCell>
        <mxCell id="sQe6duIV1zFRkCheIAob-18" style="edgeStyle=orthogonalEdgeStyle;rounded=0;orthogonalLoop=1;jettySize=auto;html=1;strokeColor=default;align=center;verticalAlign=middle;fontFamily=Helvetica;fontSize=11;fontColor=default;labelBackgroundColor=default;endArrow=open;endFill=0;entryX=0.5;entryY=0;entryDx=0;entryDy=0;" edge="1" parent="1" source="sQe6duIV1zFRkCheIAob-16" target="sQe6duIV1zFRkCheIAob-23">
          <mxGeometry relative="1" as="geometry">
            <mxPoint x="461" y="340" as="targetPoint" />
          </mxGeometry>
        </mxCell>
        <mxCell id="sQe6duIV1zFRkCheIAob-19" style="edgeStyle=orthogonalEdgeStyle;rounded=0;orthogonalLoop=1;jettySize=auto;html=1;entryX=0;entryY=0.5;entryDx=0;entryDy=0;strokeColor=default;align=center;verticalAlign=middle;fontFamily=Helvetica;fontSize=11;fontColor=default;labelBackgroundColor=default;endArrow=open;endFill=0;exitX=0.5;exitY=1;exitDx=0;exitDy=0;" edge="1" parent="1" source="sQe6duIV1zFRkCheIAob-20" target="sQe6duIV1zFRkCheIAob-38">
          <mxGeometry relative="1" as="geometry">
            <mxPoint x="397.25" y="502.7500000000001" as="sourcePoint" />
            <mxPoint x="397" y="537.75" as="targetPoint" />
            <Array as="points">
              <mxPoint x="384" y="665" />
            </Array>
          </mxGeometry>
        </mxCell>
        <mxCell id="sQe6duIV1zFRkCheIAob-20" value="Tag löschen" style="rounded=1;whiteSpace=wrap;html=1;fontFamily=Helvetica;fontSize=11;fontColor=default;labelBackgroundColor=default;" vertex="1" parent="1">
          <mxGeometry x="343.25" y="465" width="80.75" height="40" as="geometry" />
        </mxCell>
        <mxCell id="sQe6duIV1zFRkCheIAob-21" style="edgeStyle=orthogonalEdgeStyle;rounded=0;orthogonalLoop=1;jettySize=auto;html=1;strokeColor=default;align=center;verticalAlign=middle;fontFamily=Helvetica;fontSize=11;fontColor=default;labelBackgroundColor=default;endArrow=open;endFill=0;exitX=0;exitY=0.5;exitDx=0;exitDy=0;entryX=0.5;entryY=0;entryDx=0;entryDy=0;" edge="1" parent="1" source="sQe6duIV1zFRkCheIAob-23" target="sQe6duIV1zFRkCheIAob-20">
          <mxGeometry relative="1" as="geometry">
            <mxPoint x="397.25" y="472.7500000000001" as="targetPoint" />
          </mxGeometry>
        </mxCell>
        <mxCell id="sQe6duIV1zFRkCheIAob-23" value="" style="rhombus;whiteSpace=wrap;html=1;" vertex="1" parent="1">
          <mxGeometry x="451" y="327" width="50" height="50" as="geometry" />
        </mxCell>
        <mxCell id="sQe6duIV1zFRkCheIAob-24" style="edgeStyle=orthogonalEdgeStyle;rounded=0;orthogonalLoop=1;jettySize=auto;html=1;entryX=0.5;entryY=0;entryDx=0;entryDy=0;exitX=1;exitY=0.5;exitDx=0;exitDy=0;endArrow=open;endFill=0;" edge="1" parent="1" source="sQe6duIV1zFRkCheIAob-23" target="sQe6duIV1zFRkCheIAob-48">
          <mxGeometry relative="1" as="geometry">
            <mxPoint x="550.3320000000001" y="420.39718713375805" as="targetPoint" />
          </mxGeometry>
        </mxCell>
        <mxCell id="sQe6duIV1zFRkCheIAob-26" value="Emoji bearbeiten" style="rounded=1;whiteSpace=wrap;html=1;fontFamily=Helvetica;fontSize=11;fontColor=default;labelBackgroundColor=default;" vertex="1" parent="1">
          <mxGeometry x="565" y="466.39" width="79.87" height="38.61" as="geometry" />
        </mxCell>
        <mxCell id="sQe6duIV1zFRkCheIAob-29" style="edgeStyle=orthogonalEdgeStyle;rounded=0;orthogonalLoop=1;jettySize=auto;html=1;exitX=0;exitY=0.5;exitDx=0;exitDy=0;entryX=0.5;entryY=0;entryDx=0;entryDy=0;endArrow=open;endFill=0;" edge="1" parent="1" source="sQe6duIV1zFRkCheIAob-48" target="sQe6duIV1zFRkCheIAob-3">
          <mxGeometry relative="1" as="geometry">
            <mxPoint x="498" y="421.64126114649684" as="sourcePoint" />
          </mxGeometry>
        </mxCell>
        <mxCell id="sQe6duIV1zFRkCheIAob-30" style="edgeStyle=orthogonalEdgeStyle;rounded=0;orthogonalLoop=1;jettySize=auto;html=1;strokeColor=default;align=center;verticalAlign=middle;fontFamily=Helvetica;fontSize=11;fontColor=default;labelBackgroundColor=default;endArrow=open;endFill=0;exitX=1;exitY=0.5;exitDx=0;exitDy=0;" edge="1" parent="1" source="sQe6duIV1zFRkCheIAob-48" target="sQe6duIV1zFRkCheIAob-26">
          <mxGeometry relative="1" as="geometry">
            <mxPoint x="596" y="421.64126114649684" as="sourcePoint" />
          </mxGeometry>
        </mxCell>
        <mxCell id="sQe6duIV1zFRkCheIAob-31" style="edgeStyle=orthogonalEdgeStyle;rounded=0;orthogonalLoop=1;jettySize=auto;html=1;entryX=0;entryY=0.5;entryDx=0;entryDy=0;strokeColor=default;align=center;verticalAlign=middle;fontFamily=Helvetica;fontSize=11;fontColor=default;labelBackgroundColor=default;endArrow=open;endFill=0;" edge="1" parent="1" source="sQe6duIV1zFRkCheIAob-3" target="sQe6duIV1zFRkCheIAob-52">
          <mxGeometry relative="1" as="geometry">
            <mxPoint x="498" y="545.5636433121019" as="targetPoint" />
          </mxGeometry>
        </mxCell>
        <mxCell id="sQe6duIV1zFRkCheIAob-32" style="edgeStyle=orthogonalEdgeStyle;rounded=0;orthogonalLoop=1;jettySize=auto;html=1;entryX=1;entryY=0.5;entryDx=0;entryDy=0;strokeColor=default;align=center;verticalAlign=middle;fontFamily=Helvetica;fontSize=11;fontColor=default;labelBackgroundColor=default;endArrow=open;endFill=0;" edge="1" parent="1" source="sQe6duIV1zFRkCheIAob-26" target="sQe6duIV1zFRkCheIAob-52">
          <mxGeometry relative="1" as="geometry">
            <mxPoint x="596" y="545.5636433121019" as="targetPoint" />
          </mxGeometry>
        </mxCell>
        <mxCell id="sQe6duIV1zFRkCheIAob-34" value="[bearbeiten]" style="text;html=1;align=center;verticalAlign=middle;resizable=0;points=[];autosize=1;strokeColor=none;fillColor=none;fontFamily=Helvetica;fontSize=11;fontColor=default;labelBackgroundColor=default;" vertex="1" parent="1">
          <mxGeometry x="501" y="326" width="80" height="30" as="geometry" />
        </mxCell>
        <mxCell id="sQe6duIV1zFRkCheIAob-35" value="[löschen]" style="text;html=1;align=center;verticalAlign=middle;resizable=0;points=[];autosize=1;strokeColor=none;fillColor=none;fontFamily=Helvetica;fontSize=11;fontColor=default;labelBackgroundColor=default;" vertex="1" parent="1">
          <mxGeometry x="376" y="327" width="70" height="30" as="geometry" />
        </mxCell>
        <mxCell id="sQe6duIV1zFRkCheIAob-36" style="edgeStyle=orthogonalEdgeStyle;rounded=0;orthogonalLoop=1;jettySize=auto;html=1;entryX=1;entryY=0.5;entryDx=0;entryDy=0;strokeColor=default;align=center;verticalAlign=middle;fontFamily=Helvetica;fontSize=11;fontColor=default;labelBackgroundColor=default;endArrow=open;endFill=0;exitX=1;exitY=0.5;exitDx=0;exitDy=0;" edge="1" parent="1" source="sQe6duIV1zFRkCheIAob-57" target="sQe6duIV1zFRkCheIAob-39">
          <mxGeometry relative="1" as="geometry">
            <Array as="points">
              <mxPoint x="720" y="742" />
              <mxPoint x="720" y="135" />
            </Array>
          </mxGeometry>
        </mxCell>
        <mxCell id="sQe6duIV1zFRkCheIAob-58" style="edgeStyle=orthogonalEdgeStyle;rounded=0;orthogonalLoop=1;jettySize=auto;html=1;entryX=0.5;entryY=0;entryDx=0;entryDy=0;strokeColor=default;align=center;verticalAlign=middle;fontFamily=Helvetica;fontSize=11;fontColor=default;labelBackgroundColor=default;endArrow=open;endFill=0;" edge="1" parent="1" source="sQe6duIV1zFRkCheIAob-38" target="sQe6duIV1zFRkCheIAob-57">
          <mxGeometry relative="1" as="geometry" />
        </mxCell>
        <mxCell id="sQe6duIV1zFRkCheIAob-38" value="" style="rhombus;whiteSpace=wrap;html=1;" vertex="1" parent="1">
          <mxGeometry x="525" y="640" width="50" height="50" as="geometry" />
        </mxCell>
        <mxCell id="sQe6duIV1zFRkCheIAob-39" value="" style="rhombus;whiteSpace=wrap;html=1;fontFamily=Helvetica;fontSize=11;fontColor=default;labelBackgroundColor=default;" vertex="1" parent="1">
          <mxGeometry x="370" y="110" width="50" height="50" as="geometry" />
        </mxCell>
        <mxCell id="sQe6duIV1zFRkCheIAob-40" style="edgeStyle=orthogonalEdgeStyle;rounded=0;orthogonalLoop=1;jettySize=auto;html=1;entryX=0.5;entryY=0;entryDx=0;entryDy=0;strokeColor=default;align=center;verticalAlign=middle;fontFamily=Helvetica;fontSize=11;fontColor=default;labelBackgroundColor=default;endArrow=open;endFill=0;" edge="1" parent="1" source="sQe6duIV1zFRkCheIAob-39" target="sQe6duIV1zFRkCheIAob-43">
          <mxGeometry relative="1" as="geometry">
            <mxPoint x="395.30899999999997" y="203.89" as="targetPoint" />
          </mxGeometry>
        </mxCell>
        <mxCell id="sQe6duIV1zFRkCheIAob-41" value="[ja]" style="text;html=1;align=center;verticalAlign=middle;resizable=0;points=[];autosize=1;strokeColor=none;fillColor=none;fontFamily=Helvetica;fontSize=11;fontColor=default;labelBackgroundColor=default;" vertex="1" parent="1">
          <mxGeometry x="540" y="767" width="40" height="30" as="geometry" />
        </mxCell>
        <mxCell id="sQe6duIV1zFRkCheIAob-43" value="" style="rhombus;whiteSpace=wrap;html=1;" vertex="1" parent="1">
          <mxGeometry x="370" y="184" width="50" height="50" as="geometry" />
        </mxCell>
        <mxCell id="sQe6duIV1zFRkCheIAob-45" value="[neu]" style="text;html=1;align=center;verticalAlign=middle;resizable=0;points=[];autosize=1;strokeColor=none;fillColor=none;" vertex="1" parent="1">
          <mxGeometry x="305" y="184" width="50" height="30" as="geometry" />
        </mxCell>
        <mxCell id="sQe6duIV1zFRkCheIAob-46" value="[bearbeiten]" style="text;html=1;align=center;verticalAlign=middle;resizable=0;points=[];autosize=1;strokeColor=none;fillColor=none;" vertex="1" parent="1">
          <mxGeometry x="421" y="184" width="90" height="30" as="geometry" />
        </mxCell>
        <mxCell id="sQe6duIV1zFRkCheIAob-48" value="" style="rhombus;whiteSpace=wrap;html=1;" vertex="1" parent="1">
          <mxGeometry x="525" y="400" width="50" height="50" as="geometry" />
        </mxCell>
        <mxCell id="sQe6duIV1zFRkCheIAob-50" value="[andere&amp;nbsp;&lt;div&gt;Bezeichnung]&lt;/div&gt;" style="text;html=1;align=center;verticalAlign=middle;resizable=0;points=[];autosize=1;strokeColor=none;fillColor=none;fontFamily=Helvetica;fontSize=11;fontColor=default;labelBackgroundColor=default;" vertex="1" parent="1">
          <mxGeometry x="450" y="385" width="90" height="40" as="geometry" />
        </mxCell>
        <mxCell id="sQe6duIV1zFRkCheIAob-51" value="[anderer&amp;nbsp;&lt;div&gt;Emoji]&lt;/div&gt;" style="text;html=1;align=center;verticalAlign=middle;resizable=0;points=[];autosize=1;strokeColor=none;fillColor=none;fontFamily=Helvetica;fontSize=11;fontColor=default;labelBackgroundColor=default;" vertex="1" parent="1">
          <mxGeometry x="569.9300000000001" y="385" width="70" height="40" as="geometry" />
        </mxCell>
        <mxCell id="sQe6duIV1zFRkCheIAob-53" style="edgeStyle=orthogonalEdgeStyle;rounded=0;orthogonalLoop=1;jettySize=auto;html=1;entryX=0.5;entryY=1;entryDx=0;entryDy=0;endArrow=open;endFill=0;" edge="1" parent="1" source="sQe6duIV1zFRkCheIAob-52" target="sQe6duIV1zFRkCheIAob-48">
          <mxGeometry relative="1" as="geometry">
            <Array as="points">
              <mxPoint x="550" y="460" />
              <mxPoint x="550" y="460" />
            </Array>
          </mxGeometry>
        </mxCell>
        <mxCell id="sQe6duIV1zFRkCheIAob-55" style="edgeStyle=orthogonalEdgeStyle;rounded=0;orthogonalLoop=1;jettySize=auto;html=1;entryX=0.5;entryY=0;entryDx=0;entryDy=0;endArrow=open;endFill=0;" edge="1" parent="1" source="sQe6duIV1zFRkCheIAob-52" target="sQe6duIV1zFRkCheIAob-38">
          <mxGeometry relative="1" as="geometry" />
        </mxCell>
        <mxCell id="sQe6duIV1zFRkCheIAob-52" value="" style="rhombus;whiteSpace=wrap;html=1;" vertex="1" parent="1">
          <mxGeometry x="525" y="550" width="50" height="50" as="geometry" />
        </mxCell>
        <mxCell id="sQe6duIV1zFRkCheIAob-54" value="[nein]" style="text;html=1;align=center;verticalAlign=middle;resizable=0;points=[];autosize=1;strokeColor=none;fillColor=none;fontFamily=Helvetica;fontSize=11;fontColor=default;labelBackgroundColor=default;" vertex="1" parent="1">
          <mxGeometry x="541" y="520" width="50" height="30" as="geometry" />
        </mxCell>
        <mxCell id="sQe6duIV1zFRkCheIAob-56" value="[ja]" style="text;html=1;align=center;verticalAlign=middle;resizable=0;points=[];autosize=1;strokeColor=none;fillColor=none;fontFamily=Helvetica;fontSize=11;fontColor=default;labelBackgroundColor=default;" vertex="1" parent="1">
          <mxGeometry x="545" y="600" width="40" height="30" as="geometry" />
        </mxCell>
        <mxCell id="sQe6duIV1zFRkCheIAob-59" style="edgeStyle=orthogonalEdgeStyle;rounded=0;orthogonalLoop=1;jettySize=auto;html=1;entryX=0.5;entryY=0;entryDx=0;entryDy=0;strokeColor=default;align=center;verticalAlign=middle;fontFamily=Helvetica;fontSize=11;fontColor=default;labelBackgroundColor=default;endArrow=open;endFill=0;" edge="1" parent="1" source="sQe6duIV1zFRkCheIAob-57" target="sQe6duIV1zFRkCheIAob-12">
          <mxGeometry relative="1" as="geometry" />
        </mxCell>
        <mxCell id="sQe6duIV1zFRkCheIAob-57" value="" style="rhombus;whiteSpace=wrap;html=1;fontFamily=Helvetica;fontSize=11;fontColor=default;labelBackgroundColor=default;" vertex="1" parent="1">
          <mxGeometry x="525" y="717" width="50" height="50" as="geometry" />
        </mxCell>
        <mxCell id="sQe6duIV1zFRkCheIAob-60" value="[nein]" style="text;html=1;align=center;verticalAlign=middle;resizable=0;points=[];autosize=1;strokeColor=none;fillColor=none;fontFamily=Helvetica;fontSize=11;fontColor=default;labelBackgroundColor=default;" vertex="1" parent="1">
          <mxGeometry x="580" y="717" width="50" height="30" as="geometry" />
        </mxCell>
        <mxCell id="sQe6duIV1zFRkCheIAob-61" value="fertig?" style="text;html=1;align=center;verticalAlign=middle;resizable=0;points=[];autosize=1;strokeColor=none;fillColor=none;fontFamily=Helvetica;fontSize=11;fontColor=default;labelBackgroundColor=default;" vertex="1" parent="1">
          <mxGeometry x="495" y="747" width="50" height="30" as="geometry" />
        </mxCell>
      </root>
    </mxGraphModel>
  </diagram>
</mxfile>
